<?xml version="1.0" encoding="UTF-8"?> <!-- Generator: Adobe Illustrator 25.0.0, SVG Export Plug-In . SVG Version: 6.00 Build 0) --> <svg xmlns="http://www.w3.org/2000/svg" xmlns:xlink="http://www.w3.org/1999/xlink" version="1.1" id="Calque_1" x="0px" y="0px" viewBox="0 0 208 54" style="enable-background:new 0 0 208 54;" xml:space="preserve"> <style type="text/css"> .st0{fill:#005CB9;} </style> <g> <g> <path class="st0" d="M30.6,50.1C18.7,50.1,9,40.4,9,28.5C9,16.5,18.7,6.8,30.6,6.8c11.9,0,21.6,9.7,21.6,21.6 C52.3,40.4,42.6,50.1,30.6,50.1z M30.6,7.9c-11.3,0-20.6,9.2-20.6,20.6c0,11.3,9.2,20.6,20.6,20.6c11.3,0,20.6-9.2,20.6-20.6 C51.2,17.1,42,7.9,30.6,7.9z"></path> </g> <path class="st0" d="M13.7,52.8l-4.1-1.7c0,0,5.6-11.1,17.7-15.5c9.8-3.6,19.1-2,26.8,2.8c0,0-13.9-7.3-28.6,2.1 C18.6,45,14.5,52.1,14.5,52.1"></path> <path class="st0" d="M25,37.9c0.4-0.7,2-2.6,3.4-5.1c2.7-4.7,5.3-8.8,5.6-17.5c0.3-8.5-2.4-14.1-2.2-14.1c0.1,0-3.8,6.7-4.3,14.1 c-0.5,6.9,0.2,5.9-0.4,12.8C26.7,32.2,25,37.9,25,37.9"></path> </g> <g> <polyline class="st0" points="71.5,16.3 71.5,19.2 66.1,19.2 66.1,38.3 62.8,38.3 62.8,19.2 57.4,19.2 57.4,16.3 71.5,16.3 "></polyline> <polyline class="st0" points="76.9,38.3 74,38.3 74,23.4 73.3,22.2 76.9,21.1 76.9,38.3 "></polyline> <path class="st0" d="M101.3,38.3h-2.9V26.7c0-1-0.3-1.8-1-2.5c-0.7-0.6-1.5-1-2.5-1c-1.4,0-2.4,0.7-3.3,2.1v12.9h-2.9V26.7 c0-1-0.3-1.8-1-2.5c-0.7-0.6-1.5-1-2.5-1c-1.4,0-2.5,0.7-3.3,2.1v12.9H79V23.4l-0.7-1.3l3.6-1v2.4c0.6-0.7,1.3-1.2,2.3-1.7 c1-0.5,1.9-0.7,2.7-0.7c0.9,0,1.8,0.2,2.6,0.7c0.8,0.5,1.3,1.1,1.6,2c0.5-0.6,1.3-1.3,2.6-2c0.9-0.5,1.8-0.7,2.7-0.7 c1.4,0,2.5,0.4,3.4,1.3c0.9,0.9,1.3,2,1.3,3.4V38.3"></path> <path class="st0" d="M118.2,36.4l-0.8,2h-1c-1.9,0-3-0.8-3.3-2.4c-0.6,0.7-1.5,1.3-2.5,1.8c-1.1,0.6-2.1,0.9-2.9,0.9 c-1.4,0-2.6-0.4-3.5-1.2c-1-0.8-1.4-1.9-1.4-3.3c0-1.9,0.8-3.4,2.5-4.4l1.3-0.8c1.4-0.8,3.4-1.3,6.2-1.4c0-0.3,0-0.7-0.1-1.3 c-0.1-1-0.5-1.8-1.2-2.3c-0.7-0.5-1.5-0.7-2.5-0.7c-1.5,0-3,0.4-4.3,1.1l-0.5-1.3c2.4-1.3,4.5-1.9,6.4-1.9c1.5,0,2.8,0.4,3.7,1.2 c0.9,0.8,1.4,1.9,1.4,3.4V34c0,0.9,0.2,1.5,0.5,1.9C116.7,36.2,117.3,36.4,118.2,36.4 M113,34.5v-5.1c-2.9,0-4.9,0.3-5.8,0.9 c-0.9,0.6-1.4,1.5-1.4,2.9c0,1,0.4,1.8,1.1,2.5c0.8,0.6,1.7,0.9,2.7,0.9C110.8,36.6,111.9,35.9,113,34.5z"></path> <path class="st0" d="M132.1,36.8c-1.3,0.7-2.2,1.2-2.8,1.4c-0.8,0.3-1.9,0.4-3.1,0.4c-2.4,0-4.4-0.8-6.1-2.4 c-1.7-1.6-2.5-3.6-2.5-6c0-1.5,0.4-2.9,1.1-4.2c0.7-1.3,1.8-2.3,3.1-3l1.3-0.8c1.4-0.8,2.8-1.2,4.4-1.2c1.6,0,3.1,0.3,4.5,1l-1,2.4 c-1.4-0.9-3-1.3-4.7-1.3c-1.2,0-2.1,0.2-2.7,0.6c-0.9,0.6-1.6,1.4-2.1,2.4c-0.5,1-0.8,2.1-0.8,3.2c0,1.9,0.7,3.6,2.1,4.9 c1.4,1.4,3,2.1,4.9,2.1c1.7,0,3.2-0.4,4.4-1.1L132.1,36.8"></path> <path class="st0" d="M76.7,18c0,1-0.8,1.7-1.7,1.7c-1,0-1.7-0.8-1.7-1.7c0-1,0.8-1.7,1.7-1.7C76,16.3,76.7,17.1,76.7,18"></path> <path class="st0" d="M153.1,38.3h-2.2l-2.4-5.5H141l-2,4.6l0.3,0.9h-2.5l7-15.7l-0.4-0.9h2.2L153.1,38.3 M147.8,31.3l-3-6.9l-3,6.9 H147.8z"></path> <path class="st0" d="M167.5,36c-0.4,0.3-1.1,0.7-2,1.2c-1.7,1-3.6,1.5-5.6,1.5c-2.3,0-4.4-0.8-6-2.4c-1.7-1.6-2.5-3.6-2.5-6 c0-1.5,0.4-2.9,1.1-4.2c0.7-1.3,1.8-2.3,3.1-3l0.9-0.5c1.4-0.8,2.8-1.2,4.3-1.2c2.2,0,4.1,0.6,5.8,1.8l-0.7,1.9 c-1.8-1.4-3.8-2.1-6-2.1c-1.3,0-2.4,0.3-3.2,0.8c-1,0.6-1.8,1.5-2.4,2.6c-0.6,1.1-0.9,2.3-0.9,3.5c0,2.1,0.7,3.8,2.2,5.3 c1.4,1.4,3.2,2.2,5.3,2.2c1.4,0,2.7-0.3,3.9-0.9c0.2-0.1,0.4-0.2,0.7-0.4v-4.3h-6.2l0.6-1.5h7.6V36"></path> <path class="st0" d="M180.9,38.3h-2.6l-5.4-6.8h-1.6v6.8h-2V22.5l-0.5-0.9h6c1.3,0,2.5,0.5,3.4,1.4c0.9,0.9,1.4,2,1.4,3.4 c0,1.8-0.8,3.1-2.3,4.1c-0.8,0.5-1.5,0.7-2.1,0.7L180.9,38.3 M177.5,26.9c0-1-0.4-1.9-1.1-2.6c-0.7-0.7-1.6-1.1-2.6-1.1h-2.5v6.9 h3.3c0.6,0,1-0.1,1.4-0.3c0.4-0.3,0.8-0.7,1.1-1.3C177.3,28,177.5,27.4,177.5,26.9z"></path> <path class="st0" d="M198.1,29.7c0,1.5-0.4,2.9-1.1,4.2c-0.7,1.3-1.8,2.3-3.1,3.1c-1.9,1.1-3.7,1.7-5.2,1.7c-2.4,0-4.4-0.8-6-2.4 c-1.6-1.6-2.5-3.6-2.5-6c0-1.5,0.4-2.9,1.1-4.2c0.7-1.3,1.8-2.3,3.1-3.1c1-0.6,1.8-1,2.5-1.2c0.8-0.3,1.8-0.5,2.7-0.5 c2.4,0,4.4,0.8,6,2.5C197.3,25.4,198.1,27.3,198.1,29.7 M196,30.2c0-2-0.7-3.8-2.1-5.3c-1.4-1.5-3.1-2.2-5.2-2.2 c-1.3,0-2.3,0.3-3.2,0.8c-1,0.6-1.8,1.5-2.4,2.7c-0.5,1.1-0.8,2.3-0.8,3.5c0,2.1,0.7,3.8,2.1,5.3c1.4,1.4,3.1,2.2,5.2,2.2 c1.3,0,2.3-0.3,3.2-0.8c1-0.6,1.8-1.5,2.4-2.7C195.8,32.6,196,31.5,196,30.2z"></path> </g> </svg> 